<?xml version="1.0" standalone="no"?>
<!DOCTYPE svg PUBLIC "-//W3C//DTD SVG 20010904//EN"
 "http://www.w3.org/TR/2001/REC-SVG-20010904/DTD/svg10.dtd">
<svg version="1.0" xmlns="http://www.w3.org/2000/svg"
 width="48.000000pt" height="48.000000pt" viewBox="0 0 48.000000 48.000000"
 preserveAspectRatio="xMidYMid meet">
<metadata>
Created by potrace 1.16, written by Peter Selinger 2001-2019
</metadata>
<g transform="translate(0.000000,48.000000) scale(0.100000,-0.100000)"
fill="#000000" stroke="none">
<path d="M302 466 c-7 -12 -8 -19 -10 -83 l-2 -42 -141 -3 -141 -3 -1 -62 c-1
-33 1 -56 4 -51 4 6 10 1 14 -11 16 -53 98 -121 145 -121 15 0 20 -6 20 -27 0
-24 -4 -28 -30 -29 -19 -1 -27 3 -23 10 4 6 -1 5 -10 -3 -9 -7 -17 -21 -16
-30 0 -12 2 -11 9 4 7 17 9 17 9 3 1 -16 12 -18 96 -18 84 0 95 2 96 18 0 14
2 14 9 -3 7 -15 9 -16 9 -4 1 9 -7 23 -16 30 -14 12 -16 12 -8 0 6 -11 4 -13
-9 -8 -10 4 -26 7 -37 7 -21 0 -26 25 -6 33 7 3 6 6 -5 6 -11 1 -18 -9 -21
-26 -4 -26 -4 -26 -6 5 -1 26 3 32 20 32 27 0 57 16 98 54 34 31 35 31 18 3
-24 -37 -13 -34 14 5 13 17 18 28 11 24 -16 -10 -15 3 3 34 8 15 14 53 15 93
l0 67 35 0 c28 0 35 4 35 20 0 16 -7 20 -35 20 -20 0 -35 5 -35 12 0 6 -6 19
-12 28 -7 9 -3 6 9 -7 14 -14 33 -22 50 -22 27 2 27 2 3 6 -14 3 -35 14 -47
25 -24 22 -100 32 -111 14z"/>
</g>
</svg>
