<?xml version="1.0" standalone="no"?>
<!DOCTYPE svg PUBLIC "-//W3C//DTD SVG 20010904//EN"
 "http://www.w3.org/TR/2001/REC-SVG-20010904/DTD/svg10.dtd">
<svg version="1.0" xmlns="http://www.w3.org/2000/svg"
 width="48.000000pt" height="48.000000pt" viewBox="0 0 48.000000 48.000000"
 preserveAspectRatio="xMidYMid meet">
<metadata>
Created by potrace 1.16, written by Peter Selinger 2001-2019
</metadata>
<g transform="translate(0.000000,48.000000) scale(0.100000,-0.100000)"
fill="#000000" stroke="none">
<path d="M80 455 c0 -3 7 -17 16 -30 16 -24 16 -25 -11 -25 -29 0 -65 -16 -65
-29 0 -5 14 -14 30 -21 l30 -13 -26 -13 c-33 -17 -45 -18 -23 -1 16 12 15 15
-7 34 -13 12 -24 18 -24 13 0 -4 7 -13 15 -20 12 -10 13 -16 3 -27 -21 -26
-21 -61 1 -65 18 -3 18 -5 4 -23 -13 -16 -15 -17 -10 -2 4 9 2 17 -4 17 -10 0
-4 -48 7 -59 3 -3 42 7 87 22 117 38 121 32 7 -8 -52 -18 -90 -34 -84 -34 6
-1 37 8 69 19 32 11 62 20 67 20 4 0 8 -42 8 -93 0 -59 4 -97 12 -105 16 -16
100 -16 116 0 8 8 12 46 12 105 0 51 4 93 8 93 5 0 35 -9 67 -20 32 -11 63
-20 69 -19 6 0 -32 16 -84 34 -114 40 -110 46 7 8 45 -15 84 -25 87 -22 11 11
17 59 7 59 -6 0 -8 -8 -4 -17 5 -15 3 -14 -10 2 -14 18 -14 20 4 23 22 4 22
39 1 65 -10 11 -9 17 3 27 8 7 15 16 15 20 0 5 -11 -1 -24 -13 -22 -19 -23
-22 -7 -34 22 -17 10 -16 -23 1 l-26 13 30 13 c16 7 30 16 30 21 0 13 -36 29
-65 29 -27 0 -27 1 -11 25 22 33 21 35 -14 35 -39 0 -82 -22 -109 -56 l-21
-27 -21 27 c-27 34 -70 56 -109 56 -16 0 -30 -2 -30 -5z"/>
</g>
</svg>
